<svg width="120" height="102" viewBox="0 0 120 102" fill="none" xmlns="http://www.w3.org/2000/svg">
<path d="M102 31.6909C102 28.1219 100.062 24.8345 96.9384 23.1071L80.8801 14.2255C79.4268 13.4217 77.7932 13 76.1325 13H47.6307H26.8093C21.3918 13 17 17.3918 17 22.8093V79.1907C17 84.6082 21.3918 89 26.8093 89H92.1907C97.6082 89 102 84.6082 102 79.1907V31.6909Z" fill="white"/>
<path d="M26.8096 11C20.2875 11 15 16.2875 15 22.8096V79.1904C15 85.7125 20.2875 91 26.8096 91H92.1904C98.7125 91 104 85.7125 104 79.1904V31.6914C104 27.3947 101.666 23.437 97.9062 21.3574L81.8477 12.4756C80.0982 11.508 78.132 11.0001 76.1328 11H26.8096Z" stroke="white" stroke-opacity="0.2" stroke-width="4"/>
<path d="M102 59.8093C102 54.3918 97.6081 50 92.1906 50H26.8092C21.3917 50 16.9999 54.3918 16.9999 59.8093V79.1907C16.9999 84.6082 21.3917 89 26.8092 89H92.1906C97.6081 89 102 84.6082 102 79.1907V59.8093Z" fill="#597AFF" fill-opacity="0.5"/>
<path d="M102 50.8093C102 45.3918 97.6082 41 92.1907 41H26.8093C21.3918 41 17 45.3918 17 50.8093V70.1907C17 75.6082 21.3918 80 26.8093 80H92.1907C97.6082 80 102 75.6082 102 70.1907V50.8093Z" fill="#718DFF" fill-opacity="0.5"/>
<path d="M102 40.8093C102 35.3918 97.6081 31 92.1906 31H26.8092C21.3917 31 16.9999 35.3918 16.9999 40.8093V60.1907C16.9999 65.6082 21.3917 70 26.8092 70H92.1906C97.6081 70 102 65.6082 102 60.1907V40.8093Z" fill="#4167FF" fill-opacity="0.5"/>
<path d="M102 31.6909C102 28.1219 100.062 24.8345 96.9384 23.1071L80.8801 14.2255C79.4268 13.4217 77.7932 13 76.1325 13H47.6307H26.8093C21.3918 13 17 17.3918 17 22.8093V47.1907C17 52.6082 21.3918 57 26.8093 57H92.1907C97.6082 57 102 52.6082 102 47.1907V31.6909Z" fill="white"/>
<path d="M35.6992 29.4343V32.4541H26.1761V29.4343H35.6992ZM28.5272 25.4655H32.4314V41.0174C32.4314 41.5422 32.5104 41.9449 32.6686 42.2253C32.834 42.4985 33.0497 42.6854 33.3157 42.7861C33.5818 42.8867 33.8765 42.9371 34.2001 42.9371C34.4445 42.9371 34.6674 42.9191 34.8688 42.8832C35.0773 42.8472 35.2354 42.8148 35.3433 42.7861L36.0012 45.8382C35.7927 45.9101 35.4943 45.9892 35.106 46.0755C34.725 46.1618 34.2576 46.2121 33.704 46.2265C32.7261 46.2552 31.8454 46.1078 31.0617 45.7843C30.278 45.4536 29.656 44.9431 29.1959 44.2528C28.7429 43.5626 28.52 42.6998 28.5272 41.6645V25.4655ZM42.1567 29.4343L45.5 35.5494L48.8973 29.4343H53.0279L48.0345 37.7172L53.1142 46H49.0051L45.5 40.0359L42.0273 46H37.8858L42.9332 37.7172L38.0153 29.4343H42.1567ZM64.3197 29.4343V32.4541H54.7966V29.4343H64.3197ZM57.1477 25.4655H61.0519V41.0174C61.0519 41.5422 61.131 41.9449 61.2891 42.2253C61.4545 42.4985 61.6702 42.6854 61.9362 42.7861C62.2023 42.8867 62.4971 42.9371 62.8206 42.9371C63.0651 42.9371 63.288 42.9191 63.4893 42.8832C63.6978 42.8472 63.856 42.8148 63.9638 42.7861L64.6217 45.8382C64.4132 45.9101 64.1148 45.9892 63.7265 46.0755C63.3455 46.1618 62.8781 46.2121 62.3245 46.2265C61.3467 46.2552 60.4659 46.1078 59.6822 45.7843C58.8985 45.4536 58.2766 44.9431 57.8164 44.2528C57.3634 43.5626 57.1405 42.6998 57.1477 41.6645V25.4655Z" fill="url(#paint0_linear_32_563)"/>
<defs>
<linearGradient id="paint0_linear_32_563" x1="45.5" y1="16" x2="45.5" y2="53" gradientUnits="userSpaceOnUse">
<stop stop-color="#4167FF"/>
<stop offset="1" stop-color="#4167FF" stop-opacity="0.5"/>
</linearGradient>
</defs>
</svg>
