<svg width="120" height="102" viewBox="0 0 120 102" fill="none" xmlns="http://www.w3.org/2000/svg">
<path d="M7 31.9905C7 26.4217 11.6306 21.9698 17.1951 22.1889L47.4093 23.3783C49.421 23.4575 51.4082 22.9159 53.1014 21.8269L64.4015 14.5591C65.9841 13.5412 67.8261 13 69.7077 13L102.191 13C107.608 13 112 17.3918 112 22.8093V78.1907C112 83.6082 107.608 88 102.191 88H16.8093C11.3918 88 7 83.6082 7 78.1907V31.9905Z" fill="url(#paint0_linear_32_537)"/>
<path d="M112.45 42.8093C112.45 37.3918 108.058 33 102.64 33H64.684C61.5658 33 58.6334 31.5175 56.7847 29.0065L47.9402 16.9935C46.0915 14.4825 43.1591 13 40.0409 13H16.8094C11.3918 13 7.00008 17.3918 7.00008 22.8093V78.1907C7.00008 83.6082 11.3918 88 16.8093 88H102.64C108.058 88 112.45 83.6082 112.45 78.1907L112.45 42.8093Z" fill="url(#paint1_linear_32_537)"/>
<path d="M16.8091 11L16.5044 11.0039C10.1233 11.1657 5.00049 16.3894 5.00049 22.8096V78.1904C5.00049 84.7124 10.2871 89.9999 16.8091 90H102.64C109.162 90 114.45 84.7125 114.45 78.1904V42.8096C114.45 36.2875 109.162 31 102.64 31H64.6841C62.2017 31 59.8668 29.8193 58.395 27.8203L49.5503 15.8076C47.3246 12.7848 43.7943 11 40.0405 11H16.8091Z" stroke="white" stroke-opacity="0.2" stroke-width="4"/>
<defs>
<linearGradient id="paint0_linear_32_537" x1="32.5" y1="30.5" x2="112" y2="30.5" gradientUnits="userSpaceOnUse">
<stop stop-color="white" stop-opacity="0.2"/>
<stop offset="1" stop-color="white" stop-opacity="0.6"/>
</linearGradient>
<linearGradient id="paint1_linear_32_537" x1="59.7249" y1="13" x2="59.7249" y2="88" gradientUnits="userSpaceOnUse">
<stop stop-color="white"/>
<stop offset="1" stop-color="white" stop-opacity="0.5"/>
</linearGradient>
</defs>
</svg>
