<svg width="80" height="80" viewBox="0 0 80 80" fill="none" xmlns="http://www.w3.org/2000/svg">
<g clip-path="url(#clip0_26_327)">
<rect width="80" height="80" rx="20" fill="white"/>
<path fill-rule="evenodd" clip-rule="evenodd" d="M55.0008 16C58.8549 16 60.7824 15.9995 62.3024 16.6311C64.3293 17.4734 65.9403 19.0895 66.7799 21.1229C67.1632 22.0511 67.3129 23.1314 67.3717 24.7058C67.4583 27.0203 68.6419 29.1637 70.6412 30.3217C72.6401 31.4795 75.0808 31.4365 77.1216 30.3546C78.5097 29.6184 79.517 29.2088 80.5098 29.0776C82.6851 28.7903 84.8856 29.3812 86.6261 30.7211C87.932 31.7262 88.8966 33.4004 90.824 36.7496C92.7514 40.0987 93.7142 41.774 93.9293 43.4108C94.2153 45.5932 93.6258 47.8 92.2905 49.5461C91.6804 50.3438 90.823 51.0133 89.4925 51.852C87.5382 53.0841 86.2815 55.1833 86.2815 57.4992C86.2815 59.8149 87.5385 61.9141 89.4925 63.1464C90.8224 63.9846 91.6804 64.6551 92.2905 65.4522C93.6259 67.1985 94.2154 69.4067 93.9293 71.5892C93.7141 73.2259 92.7497 74.8999 90.8224 78.2488C88.895 81.5982 87.932 83.2738 86.6261 84.2789C84.8856 85.6188 82.6851 86.21 80.5098 85.9224C79.5169 85.7912 78.5103 85.3815 77.1216 84.6454C75.0807 83.5632 72.6403 83.5203 70.6412 84.6783C68.642 85.8365 67.458 87.9783 67.3717 90.2926C67.313 91.8672 67.1631 92.9472 66.7799 93.8755C65.9403 95.9089 64.3295 97.5248 62.3024 98.3672C60.7823 98.9988 58.8553 99 55.0008 99C51.146 99 49.2179 98.9989 47.6977 98.3672C45.6707 97.5248 44.0598 95.9088 43.2202 93.8755C42.8371 92.9472 42.6871 91.8667 42.6284 90.2926C42.5419 87.9783 41.3592 85.8365 39.3605 84.6783C37.3612 83.5204 34.9195 83.5631 32.8784 84.6454C31.4899 85.3815 30.4831 85.7912 29.4902 85.9224C27.315 86.2096 25.1146 85.6187 23.3739 84.2789C22.0685 83.2743 21.1048 81.5989 19.1777 78.2504C17.2504 74.9015 16.2856 73.2259 16.0708 71.5892C15.7844 69.407 16.3742 67.2001 17.7096 65.4539C18.3193 64.6567 19.1761 63.985 20.506 63.1464C22.4607 61.9142 23.7201 59.8153 23.7202 57.4992C23.7201 55.1833 22.4608 53.0844 20.506 51.852C19.1765 51.0139 18.3208 50.3432 17.7112 49.5461C16.3756 47.7998 15.7861 45.5931 16.0724 43.4108C16.2872 41.7739 17.2503 40.0988 19.1777 36.7496C21.1049 33.4007 22.0685 31.7262 23.3739 30.7211C25.1146 29.3811 27.3149 28.7886 29.4902 29.0759C30.4831 29.2071 31.49 29.6168 32.8784 30.353C34.9193 31.4352 37.3613 31.4797 39.3605 30.3217C41.3594 29.1638 42.5419 27.0214 42.6284 24.7074C42.6871 23.1326 42.8369 22.0513 43.2202 21.1229C44.0599 19.0895 45.6707 17.4734 47.6977 16.6311C49.2178 15.9994 51.1461 16 55.0008 16ZM54.9992 45.0494C48.1458 45.0496 42.5897 50.6234 42.5894 57.4992C42.5894 64.3752 48.1456 69.9488 54.9992 69.9489C61.8529 69.9489 67.409 64.3753 67.409 57.4992C67.4087 50.6233 61.8527 45.0494 54.9992 45.0494Z" fill="url(#paint0_linear_26_327)"/>
</g>
<defs>
<linearGradient id="paint0_linear_26_327" x1="55" y1="16" x2="55" y2="99" gradientUnits="userSpaceOnUse">
<stop stop-color="#4167FF"/>
<stop offset="1" stop-color="#4167FF" stop-opacity="0.5"/>
</linearGradient>
<clipPath id="clip0_26_327">
<rect width="80" height="80" rx="20" fill="white"/>
</clipPath>
</defs>
</svg>
