<svg width="80" height="80" viewBox="0 0 80 80" fill="none" xmlns="http://www.w3.org/2000/svg">
<g clip-path="url(#clip0_26_328)">
<rect width="80" height="80" rx="20" fill="white"/>
<path d="M83.718 79.7553C83.4057 79.8113 83.0326 79.8588 82.5785 79.8952C81.3001 79.9978 79.6461 80 77.2129 80H27.7871C25.3539 80 23.7 79.9978 22.4217 79.8952C21.9674 79.8588 21.5942 79.8114 21.2818 79.7553L40.0846 61.2961L43.3527 63.4435L43.3569 63.4464C45.9046 65.114 47.7608 66.3782 49.8497 66.8697C51.5906 67.2793 53.406 67.2792 55.147 66.8697C57.2359 66.3782 59.0924 65.114 61.6401 63.4464L61.6444 63.4435L64.9141 61.2948L83.718 79.7553Z" fill="url(#paint0_linear_26_328)"/>
<path d="M35.257 58.1239L17.2497 75.8021C17.1923 75.495 17.1439 75.1277 17.1066 74.68C17.0022 73.4255 17 71.8022 17 69.4133V46.1274L35.257 58.1239Z" fill="url(#paint1_linear_26_328)"/>
<path d="M88 69.4133C88 71.8021 87.9978 73.4254 87.8934 74.6798C87.8561 75.1275 87.8075 75.4948 87.7501 75.8019L69.7417 58.1228L88 46.1255V69.4133Z" fill="url(#paint2_linear_26_328)"/>
<path d="M51.2369 16.1398C52.0685 15.9535 52.9315 15.9534 53.7631 16.1396C54.5901 16.3249 55.4308 16.7992 58.2386 18.5301L82.9513 33.7664C85.4371 35.299 86.1453 35.7712 86.6407 36.3406C87.138 36.9118 87.5127 37.5771 87.7418 38.2954C87.8391 38.6013 87.9002 38.9303 87.9385 39.4326L58.4833 58.7872C55.6556 60.638 54.7437 61.188 53.9025 61.4058L53.8213 61.4258C52.9514 61.6304 52.0447 61.6303 51.1756 61.4258C50.31 61.2222 49.4324 60.6976 46.5136 58.7872L17.0612 39.4344C17.0995 38.931 17.1607 38.6018 17.2582 38.2955L17.3027 38.1616C17.534 37.4951 17.8922 36.877 18.3589 36.3407C18.8546 35.7711 19.5631 35.2989 22.0489 33.7664L46.7612 18.5299C49.5688 16.7991 50.4099 16.3251 51.2369 16.1398Z" fill="url(#paint3_linear_26_328)"/>
</g>
<defs>
<linearGradient id="paint0_linear_26_328" x1="52.5" y1="16" x2="52.5" y2="80" gradientUnits="userSpaceOnUse">
<stop stop-color="#4167FF"/>
<stop offset="1" stop-color="#4167FF" stop-opacity="0.5"/>
</linearGradient>
<linearGradient id="paint1_linear_26_328" x1="52.5" y1="16" x2="52.5" y2="80" gradientUnits="userSpaceOnUse">
<stop stop-color="#4167FF"/>
<stop offset="1" stop-color="#4167FF" stop-opacity="0.5"/>
</linearGradient>
<linearGradient id="paint2_linear_26_328" x1="52.5" y1="16" x2="52.5" y2="80" gradientUnits="userSpaceOnUse">
<stop stop-color="#4167FF"/>
<stop offset="1" stop-color="#4167FF" stop-opacity="0.5"/>
</linearGradient>
<linearGradient id="paint3_linear_26_328" x1="52.5" y1="16" x2="52.5" y2="80" gradientUnits="userSpaceOnUse">
<stop stop-color="#4167FF"/>
<stop offset="1" stop-color="#4167FF" stop-opacity="0.5"/>
</linearGradient>
<clipPath id="clip0_26_328">
<rect width="80" height="80" rx="20" fill="white"/>
</clipPath>
</defs>
</svg>
