<svg width="80" height="80" viewBox="0 0 80 80" fill="none" xmlns="http://www.w3.org/2000/svg">
<g clip-path="url(#clip0_26_329)">
<rect width="80" height="80" rx="20" fill="white"/>
<path d="M77.8893 68.1111C70.2939 49.1017 61.4283 44.0916 61.4283 34.6111V23.4444H63.2854C63.7779 23.4444 64.2502 23.2484 64.5985 22.8993C64.9468 22.5503 65.1424 22.0769 65.1424 21.5833V17.8611C65.1424 17.3675 64.9468 16.8941 64.5985 16.5451C64.2502 16.1961 63.7779 16 63.2854 16H44.7147C44.2221 16 43.7498 16.1961 43.4015 16.5451C43.0532 16.8941 42.8576 17.3675 42.8576 17.8611V21.5833C42.8576 22.0769 43.0532 22.5503 43.4015 22.8993C43.7498 23.2484 44.2221 23.4444 44.7147 23.4444H46.5717V34.6111C46.5717 44.0916 37.7061 49.1017 30.1107 68.1111C27.6927 74.1597 21.4827 83 54 83C86.5173 83 80.3072 74.1597 77.8893 68.1111ZM71.8836 74.6287C69.2763 75.4104 64.0876 76.3 54 76.3C43.9124 76.3 38.7237 75.4104 36.1164 74.6287C35.1916 74.3533 34.8313 73.2776 35.1582 72.2912C35.9753 69.7973 37.5166 65.4869 40.3988 60.6741C47.4408 48.9156 54.7465 62.5241 60.8266 62.5241C66.9066 62.5241 65.239 56.7137 67.6012 60.6741C69.775 64.3384 71.5328 68.235 72.8418 72.2912C73.1687 73.2776 72.8084 74.3496 71.8836 74.6287Z" fill="url(#paint0_linear_26_329)"/>
</g>
<defs>
<linearGradient id="paint0_linear_26_329" x1="54" y1="16" x2="54" y2="83" gradientUnits="userSpaceOnUse">
<stop stop-color="#4167FF"/>
<stop offset="1" stop-color="#4167FF" stop-opacity="0.5"/>
</linearGradient>
<clipPath id="clip0_26_329">
<rect width="80" height="80" rx="20" fill="white"/>
</clipPath>
</defs>
</svg>
